<?xml version="1.0" encoding="utf-8"?>
<!-- Generator: Adobe Illustrator 27.0.1, SVG Export Plug-In . SVG Version: 6.00 Build 0)  -->
<svg version="1.1" id="Livello_1" xmlns="http://www.w3.org/2000/svg" xmlns:xlink="http://www.w3.org/1999/xlink" x="0px" y="0px"
	 viewBox="0 0 512 512" style="enable-background:new 0 0 512 512;" xml:space="preserve">
<style type="text/css">
	.st0{fill:#FFFFFF;}
</style>
<rect y="0" width="512" height="512"/>
<g transform="translate(256  256) rotate(45)">
	
		<rect x="222.1" y="-472.1" transform="matrix(2.535182e-06 1 -1 2.535182e-06 -1.067115e-03 -844.1235)" class="st0" width="400" height="100"/>
	
		<rect x="372.1" y="-622.1" transform="matrix(2.535182e-06 1 -1 2.535182e-06 -1.067115e-03 -844.1235)" class="st0" width="100" height="400"/>
</g>
<g>
	<path class="st0" d="M289,64.4c2.1,0.4,4.2,0.6,6.2,1.1c17.3,4,27.6,20.1,24.3,38.1c-7.2,38.6-14.6,77.1-21.8,115.7
		c-0.2,0.9-0.2,1.9-0.4,3.2c12.6-7.8,25.2-8.6,37.2-0.3c12,8.3,15.6,20.4,12.9,34.7c2.9,0.4,5.6,0.6,8.2,1.3
		c20.3,4.9,31.1,27.3,20.8,45.5c-5.4,9.4-6.8,18.2-5.8,28.8c2.5,27-5.7,51.2-22.5,72.4c-0.3,0.4-0.6,0.8-0.9,1.2
		c-9,8.3-12.1,18.6-10.8,30.5c0.2,1.6,0.1,3.3-0.1,4.9c-0.5,3.8-3.6,6.3-7.5,6.4c-4.3,0.1-7.9-2.3-8-6.2c-0.3-9.1-1.7-18.4,2.1-27
		c2.5-5.6,5.8-11.1,9.7-15.7c12-14.2,19.7-30.1,22-48.7c0.2-1.2,0.3-2.5,0.4-3.7c0.1-1.1,0-2.2,0-4.4c-7.9,13.1-18.7,19.7-33.2,17.8
		c-14.6-1.9-23.5-11.1-27.4-25.5c-14.9,3.4-27.7-0.1-36.3-13.1c-8.7-13.1-6.6-26.3,1.8-39.1c-12,7-24.6,11.7-39.1,13.6
		c1.5,1.4,2.6,2.4,3.6,3.3c20,18.1,34.5,39.8,43.4,65.3c1.1,3.3,1.2,6.4-1.2,9.1c-2.1,2.4-4.8,3-7.8,2.4c-3.6-0.8-5.1-3.6-6.2-6.8
		c-5.4-15.6-13.4-29.7-23.8-42.5c-9.6-11.8-21-21.6-33.8-29.9c-1-0.7-2.1-1.3-3.1-2.1c-2.7-2.2-3.6-5.1-2.7-8.4
		c0.9-3.3,3.2-5.4,6.7-5.6c4.5-0.2,9-0.2,13.5-0.2c20.2,0,37.8-6.8,52.6-20.6c2.2-2,4.1-4.1,2.8-7.5c-1.3-3.5-4.1-3.8-7.3-3.8
		c-24.3,0-48.7,0-73,0c-9.3,0-15.3,4.3-18.3,13.1c-5.2,15.6-10.5,31.1-15.6,46.8c-5.7,17.6-3.2,34.3,7.2,49.6
		c9.9,14.5,20,28.9,30.3,43.2c6,8.3,9,17.4,8.6,27.6c-0.1,3.7,0.1,7.5-0.1,11.2c-0.3,5.1-3.2,7.8-8.1,7.7c-4.5,0-7.6-3-7.8-7.8
		c-0.2-4.2-0.1-8.5,0-12.7c0.1-5.8-1.6-11-5-15.7c-10-14.2-19.9-28.4-29.8-42.6c-14.6-20.9-17.9-43.4-9.9-67.5
		c4.6-13.9,9.6-27.8,13.9-41.8c4.5-14.7,13.6-24.1,29.3-26.9c-1.1-7.7-2.2-15.3-3.3-22.9c-5-34-10.2-68-15.1-102.1
		C158.3,91,170.7,75.7,188.2,73c15.8-2.4,32.2,9.1,34.9,25.3c3.6,21.4,6.6,42.9,9.8,64.3c1.5,10.1,3,20.2,5.1,30.3
		c2-10.8,4.1-21.6,6.1-32.5c4.3-23.2,8.5-46.3,12.9-69.5c2.7-14.1,13.3-24,27.7-26c0.7-0.1,1.4-0.4,2.1-0.6
		C287.6,64.4,288.3,64.4,289,64.4z M277,241.7c0.4-1.6,0.7-2.1,0.8-2.7c6-31.6,11.9-63.1,17.9-94.7c2.7-14.4,5.4-28.9,8.2-43.3
		c1.8-9.8-3.3-18.2-12.3-20c-9.2-1.9-17.2,4-19,13.9c-6.4,34.5-12.9,69-19.3,103.5c-2.1,11.1-4.1,22.2-6.2,33.9
		C257.9,232.6,269.2,230.5,277,241.7z M227.1,232.4c-0.2-1.8-0.3-3-0.5-4.2c-3.9-26-7.8-52-11.7-78c-2.4-16.3-4.8-32.5-7.5-48.8
		c-1-6.2-5-10.3-11-12c-6.1-1.7-11.6-0.2-16,4.6c-4.2,4.6-4.3,10.1-3.5,15.8c2.8,18.2,5.4,36.5,8.1,54.7c3.2,21.7,6.4,43.4,9.8,65.1
		c0.2,1,1.6,2.7,2.5,2.7C207.1,232.4,216.8,232.4,227.1,232.4z M285.1,319.6c4.9-0.2,9.8-2.4,12.8-7.6c10.8-18.5,21.6-37,32.2-55.6
		c4.6-8.1,1.8-17.7-5.9-22c-7.7-4.3-16.9-1.7-21.7,6.2c-2.2,3.6-4.3,7.3-6.4,11c-8.4,14.6-16.9,29.1-25.2,43.7
		C264.6,306.4,271.8,319.5,285.1,319.6z M364.7,289.3c-0.6-7.4-5.1-13.4-12-15.5c-7-2.1-14.1,0.6-18,7.1
		c-7.6,12.9-15,25.8-22.4,38.7c-4.7,8.2-2.4,17.6,5.3,22.2c7.8,4.7,17.4,2.1,22.2-6.1c7.4-12.7,14.8-25.4,22-38.2
		C363.2,295.1,363.7,292.1,364.7,289.3z"/>
</g>
</svg>
